HIERARCHY
ROOT Hips
{
	OFFSET -3.958830 18.904000 13.208200
	CHANNELS 6 Xposition Yposition Zposition Zrotation Yrotation Xrotation 
	JOINT LHipJoint
	{
		OFFSET 0.000000 0.000000 0.000000
		CHANNELS 3 Zrotation Yrotation Xrotation
		JOINT LeftUpLeg
		{
			OFFSET 1.800000 -1.400000 0.085000
			CHANNELS 3 Zrotation Yrotation Xrotation
			JOINT LeftLeg
			{
				OFFSET 2.215000 -6.000000 0.000000
				CHANNELS 3 Zrotation Yrotation Xrotation
				JOINT LeftFoot
				{
					OFFSET 2.500000 -6.900000 0.000000
					CHANNELS 3 Zrotation Yrotation Xrotation
					JOINT LeftToeBase
					{
						OFFSET 0.200000 -0.500000 1.950000
						CHANNELS 3 Zrotation Yrotation Xrotation
						End Site
						{
							OFFSET 0.000000 0.000000 0.000000
						}
					}
				}
			}
		}
	}
	JOINT RHipJoint
	{
		OFFSET 0.000000 0.000000 0.000000
		CHANNELS 3 Zrotation Yrotation Xrotation
		JOINT RightUpLeg
		{
			OFFSET -1.800000 -1.400000 0.085000
			CHANNELS 3 Zrotation Yrotation Xrotation
			JOINT RightLeg
			{
				OFFSET -2.215000 -6.000000 0.000000
				CHANNELS 3 Zrotation Yrotation Xrotation
				JOINT RightFoot
				{
					OFFSET -2.500000 -6.900000 0.000000
					CHANNELS 3 Zrotation Yrotation Xrotation
					JOINT RightToeBase
					{
						OFFSET -0.200000 -0.500000 1.950000
						CHANNELS 3 Zrotation Yrotation Xrotation
						End Site
						{
							OFFSET 0.000000 0.000000 0.000000
						}
					}
				}
			}
		}
	}
	JOINT LowerBack
	{
		OFFSET 0.000000 0.000000 0.000000
		CHANNELS 3 Zrotation Yrotation Xrotation
		JOINT Spine
		{
			OFFSET -0.087000 1.940000 -0.288900
			CHANNELS 3 Zrotation Yrotation Xrotation
			JOINT Spine1
			{
				OFFSET 0.000000 1.950000 0.060000
				CHANNELS 3 Zrotation Yrotation Xrotation
				JOINT Neck
				{
					OFFSET 0.000000 0.000000 0.000000
					CHANNELS 3 Zrotation Yrotation Xrotation
					JOINT Neck1
					{
						OFFSET 0.000000 1.600000 0.340000
						CHANNELS 3 Zrotation Yrotation Xrotation
						JOINT Head
						{
							OFFSET 0.000000 1.667000 -0.240000
							CHANNELS 3 Zrotation Yrotation Xrotation
							End Site
							{
								OFFSET 0.000000 0.000000 0.000000
							}
						}
					}
				}
				JOINT LeftShoulder
				{
					OFFSET 0.000000 0.000000 0.000000
					CHANNELS 3 Zrotation Yrotation Xrotation
					JOINT LeftArm
					{
						OFFSET 2.700000 1.550000 -0.730000
						CHANNELS 3 Zrotation Yrotation Xrotation
						JOINT LeftForeArm
						{
							OFFSET 5.450000 0.000000 0.000000
							CHANNELS 3 Zrotation Yrotation Xrotation
							JOINT LeftHand
							{
								OFFSET 3.450000 0.000000 0.000000
								CHANNELS 3 Zrotation Yrotation Xrotation
								JOINT LeftHandIndex1
								{
									OFFSET 0.750000 0.000000 0.000000
									CHANNELS 3 Zrotation Yrotation Xrotation
									End Site
									{
										OFFSET 0.000000 0.000000 0.000000
									}
								}
							}
						}
					}
				}
				JOINT RightShoulder
				{
					OFFSET 0.000000 0.000000 0.000000
					CHANNELS 3 Zrotation Yrotation Xrotation
					JOINT RightArm
					{
						OFFSET -2.700000 1.550000 -0.730000
						CHANNELS 3 Zrotation Yrotation Xrotation
						JOINT RightForeArm
						{
							OFFSET -5.450000 0.000000 0.000000
							CHANNELS 3 Zrotation Yrotation Xrotation
							JOINT RightHand
							{
								OFFSET -3.450000 0.000000 0.000000
								CHANNELS 3 Zrotation Yrotation Xrotation
								JOINT RightHandIndex1
								{
									OFFSET -0.750000 0.000000 0.000000
									CHANNELS 3 Zrotation Yrotation Xrotation
									End Site
									{
										OFFSET 0.000000 0.000000 0.000000
									}
								}
							}
						}
					}
				}
			}
		}
	}
}
MOTION
Frames: 12
Frame Time: 0.016667
-0.689090 13.284110 -3.383110 1.757293 22.736371 -36.808984 -14.961223 6.495336 4.291239 -13.628496 -18.543062 -35.068210 60.877573 -29.863511 126.533211 1.796878 25.927954 -3.714738 8.656070 3.815460 5.311530 19.799385 -5.990277 7.341794 -65.249209 16.024119 -71.396765 114.034380 -62.516337 30.749041 -4.352717 -10.761128 8.226687 5.289700 -4.930630 0.033270 -6.018623 4.781896 -11.091590 52.507870 -35.607770 68.421436 -52.940419 -12.184168 42.136256 14.513851 3.050300 -6.407091 1.958521 -24.274269 24.634008 21.302410 -22.927080 -71.990390 9.779520 -35.115131 -5.314563 104.090656 -27.615704 -54.216131 18.210270 -13.902896 -5.003907 -3.660905 1.894321 2.100310 -0.110180 0.094490 2.976500 -38.133197 20.856190 24.960321 -56.013868 50.752281 154.875700 56.932161 61.415880 153.651920 20.848413 -7.860329 0.929300 0.531990 -3.525490 -5.620360 
-0.722700 13.263480 -3.376660 3.023511 22.276744 -36.169204 -14.905755 6.535446 4.275153 -12.562649 -18.841774 -35.842925 57.341877 -26.416238 130.702609 1.594176 24.548082 -3.411980 8.760090 3.800210 5.455950 19.848175 -5.823327 7.525155 -64.005890 16.104177 -73.523274 108.432629 -65.888173 35.929416 -4.507011 -11.036779 8.156262 5.226200 -4.949330 0.126370 -6.158255 4.510210 -11.282838 50.932689 -35.048437 70.243868 -52.105011 -11.637187 40.814528 13.339559 3.512284 -6.114511 2.526126 -24.074446 25.050671 21.735370 -22.566850 -71.529090 10.984400 -35.286798 -5.386316 103.234325 -26.959727 -53.960328 18.342617 -12.317083 -5.341440 -3.618319 2.011225 2.108390 -0.127150 0.117190 3.006840 -37.236231 20.977696 23.867975 -59.202413 51.959860 155.548501 53.036393 59.442487 148.434084 3.625499 -1.136749 1.015230 0.454190 -3.588040 -5.630650 
-0.769280 13.232390 -3.363300 4.636824 22.280539 -35.042231 -14.903349 6.318717 4.333009 -12.352014 -20.065764 -36.381748 55.425178 -24.430661 133.016212 1.429443 23.806109 -3.268612 8.886040 3.898640 5.414250 19.887854 -5.602000 7.679106 -63.610400 15.641672 -75.959118 102.679331 -68.779999 41.663011 -4.791551 -11.453406 8.093061 5.234470 -4.898430 0.226410 -6.165061 4.482787 -11.398132 47.590188 -33.841629 72.885539 -51.523886 -11.337688 39.778153 12.743929 4.249835 -6.249715 4.203399 -23.729912 24.322765 22.469730 -22.007590 -71.292780 11.989444 -33.470196 -6.168501 105.914100 -26.242480 -56.766230 15.895881 -9.383950 -5.822068 -3.561583 2.300198 2.117720 -0.143390 0.134070 3.150480 -36.929280 20.473328 24.924412 -63.206659 50.870871 159.656237 52.250459 63.349859 142.199053 -1.405164 0.833443 1.112760 0.484480 -3.545840 -5.605290 
-0.790820 13.196030 -3.364810 4.481540 22.709593 -34.616570 -14.910933 6.065796 4.468124 -10.846276 -21.872813 -37.792862 52.061259 -21.125539 136.741936 1.181940 22.617262 -3.011147 8.896380 3.921910 5.369680 19.907550 -5.422349 7.724488 -62.354309 14.829640 -76.996932 94.809865 -71.376480 48.814181 -5.048322 -12.037471 8.023484 5.202670 -4.823200 0.237770 -6.159475 4.398095 -11.549804 46.320525 -34.168920 73.584609 -51.450360 -11.170063 38.305515 12.507807 4.794694 -6.054155 4.821488 -23.227049 24.771370 23.024920 -21.474740 -71.102210 12.521090 -31.940249 -6.913003 106.756692 -26.876905 -58.969357 15.737859 -7.924744 -6.154266 -3.565682 2.396289 2.102200 -0.132390 0.111140 3.197040 -37.098319 20.032535 25.007187 -65.777951 51.182840 164.299432 51.819157 67.196476 136.240706 -3.901933 2.188892 1.136220 0.547410 -3.490350 -5.575790 
-0.829620 13.174620 -3.352500 5.407140 22.602606 -33.864593 -14.889331 5.891835 4.517197 -9.396633 -22.847604 -38.546730 49.687265 -17.544108 139.437261 0.983850 21.675152 -2.791082 8.842010 3.873200 5.311330 19.943483 -5.306343 7.814683 -61.580281 14.654505 -78.534702 88.092772 -72.943516 55.364371 -5.306750 -12.771628 7.903163 5.168170 -4.795860 0.233650 -6.210952 4.460038 -11.664481 44.107883 -33.777463 75.359471 -51.800287 -11.150279 36.669905 12.530539 4.954022 -5.843587 4.416287 -22.997630 25.669377 23.941720 -21.066050 -71.567910 12.575388 -30.596431 -7.848385 105.575699 -27.980541 -58.769902 17.569549 -10.398686 -5.943750 -3.607751 2.398210 2.115390 -0.127710 0.093260 3.193420 -37.666237 19.992703 25.274586 -67.822978 51.072175 167.740170 52.709334 70.352969 130.172844 -5.735007 3.717100 1.110210 0.555600 -3.457390 -5.572880 
-0.833200 13.181930 -3.348920 6.147951 21.631692 -33.376011 -14.850575 5.778566 4.529903 -8.160280 -23.413505 -38.623440 47.350404 -12.970536 142.085833 0.757329 20.797664 -2.601797 8.776130 3.826130 5.281450 19.981000 -5.274319 7.886723 -60.690562 14.817262 -79.725664 81.588568 -73.737538 61.621653 -5.553048 -13.602261 7.770434 5.146040 -4.759110 0.201200 -6.279942 4.589690 -11.737919 41.773088 -33.625393 77.035659 -52.201320 -11.045987 35.771100 12.573157 4.580741 -6.138875 3.138050 -23.136109 26.203303 23.968150 -20.995060 -71.696710 11.676660 -29.282722 -8.824931 106.286957 -29.249753 -62.116792 17.425051 -10.684368 -6.073042 -3.641266 2.341474 2.126400 -0.101840 0.059120 3.149670 -37.634909 20.180085 26.003090 -69.958246 48.906219 166.465708 62.033341 67.692995 124.775189 -6.707815 5.128947 1.054960 0.579980 -3.424360 -5.579570 
-0.837580 13.168170 -3.350130 6.130163 21.192291 -33.198853 -14.835426 5.618873 4.631584 -6.212908 -24.944310 -38.992086 44.212856 -6.637400 145.721077 0.512281 19.934847 -2.430650 8.714730 3.766930 5.306540 19.990569 -5.192935 7.904698 -59.181293 14.857353 -80.521912 70.852671 -74.492674 71.748323 -5.965887 -14.979852 7.527196 5.139220 -4.782800 0.172840 -6.288898 4.586801 -11.856284 39.343486 -33.779085 78.308539 -52.093712 -10.975675 34.250498 12.873402 4.427866 -6.317830 1.464206 -23.349143 27.475990 23.424660 -20.808090 -72.101810 10.812709 -28.124019 -9.865929 106.192083 -31.592037 -66.111319 18.099341 -11.012440 -6.332008 -3.677688 2.229314 2.172880 -0.085560 0.057460 3.064680 -38.469084 20.665636 26.069474 -69.977522 47.741654 159.401349 76.005308 57.343769 117.636317 -6.387281 6.342240 0.984720 0.561620 -3.424730 -5.622490 
-0.853390 13.153560 -3.348440 6.238767 20.494454 -33.516632 -14.802792 5.560862 4.657638 -3.671661 -25.796622 -38.877725 41.675426 -0.092171 148.725607 0.332829 19.468334 -2.333031 8.529290 3.596620 5.301900 19.998719 -5.188096 7.905423 -57.652724 15.532850 -81.197296 62.142125 -74.671305 80.096625 -6.262142 -16.260989 7.331849 5.098970 -4.783190 0.058590 -6.338332 4.659350 -11.935085 37.225682 -34.313676 80.241401 -52.721356 -11.157367 32.024617 13.513544 4.580172 -6.321158 -0.507636 -23.206389 29.803471 22.743760 -20.660350 -72.337910 10.150059 -27.786444 -10.707003 104.695737 -33.657195 -67.404904 18.643155 -12.866525 -6.242076 -3.778157 1.953615 2.225360 -0.047580 0.004200 2.908660 -40.143421 21.653262 25.325668 -68.587572 47.588859 151.212505 83.709951 45.375195 110.435682 -5.109251 6.581048 0.808010 0.587490 -3.390450 -5.698360 
-0.868460 13.141820 -3.342450 6.359471 20.526578 -33.413407 -14.792503 5.487134 4.719100 -2.161846 -26.822389 -39.177924 39.670998 5.373414 150.723450 -0.076419 19.580622 -2.425924 8.303730 3.418500 5.014650 19.997958 -5.149148 7.885965 -56.767853 15.289103 -81.472943 55.315815 -74.802071 86.715603 -6.502203 -17.300068 7.333417 5.129940 -4.550410 -0.074380 -6.348371 4.650167 -12.002581 35.080872 -34.831205 81.465809 -53.440166 -11.372298 30.295616 14.195235 4.547378 -6.037930 -1.708780 -22.940211 30.692899 22.351110 -20.952020 -72.427600 9.510829 -26.408743 -11.853656 105.439109 -35.166429 -70.630921 17.019590 -13.077198 -6.402412 -3.949544 1.624685 2.417330 0.083400 -0.178590 2.909470 -41.502093 21.750115 25.324049 -68.420216 46.799286 144.928345 87.985564 36.420546 103.635542 -4.164389 6.088323 0.439980 0.878650 -3.152470 -5.818400 
-0.873100 13.141410 -3.341170 5.809324 20.994807 -33.574689 -14.786896 5.416015 4.801465 -1.415873 -27.946324 -39.395158 38.316089 8.535412 151.738442 -0.226358 19.661790 -2.502808 8.015930 3.287540 4.680320 20.000724 -5.118724 7.855010 -56.051563 14.791220 -80.825180 49.208606 -74.659893 92.431950 -6.639063 -18.101508 7.255715 5.116600 -4.415790 -0.224170 -6.380889 4.571839 -12.050578 33.871303 -36.245569 82.328417 -54.306655 -12.182965 28.251796 14.678184 4.484301 -5.931877 -3.071634 -22.350436 31.978165 22.599140 -20.952410 -72.579510 8.451596 -25.561522 -13.023309 105.682111 -36.189652 -72.734008 13.806327 -14.080089 -5.878090 -4.060985 1.463105 2.441370 0.148890 -0.308470 2.839760 -41.993294 21.093197 27.201514 -70.672087 44.907589 141.998306 90.954169 32.514128 100.207191 -3.407138 4.087092 0.224020 1.033260 -2.930030 -5.829500 
-0.865050 13.143000 -3.341520 4.834088 21.503424 -34.245331 -14.796406 5.422365 4.829470 -1.051767 -28.725877 -38.881712 37.633185 9.672308 152.283438 -0.201636 19.673586 -2.472242 8.011500 3.271360 4.644480 19.998109 -5.074219 7.787915 -55.233125 14.275814 -79.516988 47.558024 -74.682396 93.713130 -6.685839 -18.175059 7.245593 5.114810 -4.410680 -0.198750 -6.421532 4.266333 -11.884544 35.024565 -38.355638 82.329512 -56.879162 -14.089084 26.340049 15.117218 5.677379 -5.161186 -2.681753 -21.603051 33.896430 22.645380 -21.310730 -72.254500 7.964221 -24.493839 -12.955587 106.065182 -37.184730 -74.023311 11.435882 -13.929976 -5.519614 -4.055259 1.508352 2.447280 0.142180 -0.295140 2.882800 -43.054316 15.869734 36.276125 -78.858534 38.173901 170.647622 102.014022 66.940611 122.898236 -0.796782 -6.029820 0.227320 1.035060 -2.926510 -5.825710 
-0.866020 13.142190 -3.336040 4.078118 21.975347 -34.773356 -14.728613 5.249762 4.801304 -1.280535 -28.910091 -37.857408 37.498993 9.496433 152.275855 0.009742 19.596842 -2.370073 8.291380 3.415240 4.868350 20.071743 -5.258312 7.753839 -54.652670 14.088090 -78.855629 47.323430 -74.746061 93.829067 -6.829670 -18.142431 7.226796 5.126720 -4.532040 -0.012290 -6.672074 4.928293 -12.032463 34.654127 -40.078135 82.750891 -56.942370 -15.247337 26.401439 14.483235 4.155840 -4.983525 -4.535777 -22.654288 31.882070 23.458200 -21.615910 -71.932080 8.704862 -21.472685 -13.908849 105.444061 -37.412974 -73.505427 13.368259 -13.559221 -5.931137 -3.906922 1.822986 2.409380 0.062920 -0.155870 3.019640 -42.957123 15.089285 32.658372 -75.974308 40.434493 149.989394 98.310092 38.805897 95.010547 -2.728210 -0.533514 0.479560 0.863330 -3.128290 -5.775910 
